trial_1_IK.mot
nRows=11
nColumns=42

name trial_1_IK.mot
datacolumns 42
datarows 11
range 3.2900000000 3.3900000000
endheader
time	pelvis_tilt	pelvis_list	pelvis_rotation	pelvis_tx	pelvis_ty	pelvis_tz	hip_flexion_r	hip_adduction_r	hip_rotation_r	knee_angle_r	knee_vv_r	knee_rot_r	ankle_angle_r	subtalar_angle_r	mtp_angle_r	hip_flexion_l	hip_adduction_l	hip_rotation_l	knee_angle_l	knee_vv_l	knee_rot_l	ankle_angle_l	subtalar_angle_l	mtp_angle_l	lumbar_extension	lumbar_bending	lumbar_rotation	arm_flex_r	arm_add_r	arm_rot_r	elbow_flex_r	pro_sup_r	wrist_flex_r	wrist_dev_r	arm_flex_l	arm_add_l	arm_rot_l	elbow_flex_l	pro_sup_l	wrist_flex_l	wrist_dev_l
        3.2900000000	        8.9993123100	       -1.8104628500	        0.1461657600	        0.0740675300	        0.9161404400	        0.0245601400	       -1.6965928600	        6.2809579400	        0.7490067100	      -13.1560264800	        0.0000000000	        0.0000000000	        7.5308852900	        0.0000000000	        0.0000000000	        7.0329349500	       -5.4284240300	       -5.5377377700	      -56.2704998000	        0.0000000000	        0.0000000000	       -1.5973824300	        0.0000000000	        0.0000000000	      -23.1388260300	       -0.1200357300	        3.4161331200	       18.4503877700	      -17.8519048800	       34.1932716600	       21.8330507800	       86.5166270600	        0.0000000000	        0.0000000000	        2.0692643700	       -9.6272721600	       47.6058679900	        0.0430837200	       85.9436692700	        0.0000000000	        0.0000000000	
        3.3000000000	        8.8154431400	       -1.6604767600	       -0.1682433400	        0.0730389000	        0.9164332300	        0.0255178700	       -2.1696133500	        6.1316172200	        0.9347391300	      -12.8636355100	        0.0000000000	        0.0000000000	        7.8010129800	        0.0000000000	        0.0000000000	        8.2547523600	       -5.3670292400	       -6.1328868300	      -55.5516384800	        0.0000000000	        0.0000000000	       -0.8576954300	        0.0000000000	        0.0000000000	      -23.0567134800	       -0.4856995300	        3.9185352800	       19.2542706200	      -18.2541232900	       33.5662267300	       22.5447644400	       86.5166270600	        0.0000000000	        0.0000000000	        1.4635716400	       -9.6560506200	       47.1336966100	        0.0922510600	       85.9436692700	        0.0000000000	        0.0000000000	
        3.3100000000	        8.6255339100	       -1.4912592400	       -0.4651079800	        0.0720093000	        0.9166924800	        0.0263706600	       -2.6446837900	        5.9429135300	        1.0363398500	      -12.5483146300	        0.0000000000	        0.0000000000	        8.0548752300	        0.0000000000	        0.0000000000	        9.3978921700	       -5.2541011200	       -6.7054230900	      -54.5320805700	        0.0000000000	        0.0000000000	       -0.2094046500	        0.0000000000	        0.0000000000	      -22.9467810300	       -0.8574555900	        4.3770740700	       20.0501659800	      -18.6402163300	       33.0534257300	       23.1725504200	       86.5166270600	        0.0000000000	        0.0000000000	        0.8837401400	       -9.7029265900	       46.6339148200	        0.1714741100	       85.9436692700	        0.0000000000	        0.0000000000	
        3.3200000000	        8.4456455700	       -1.3064507500	       -0.7377123700	        0.0709984700	        0.9169298000	        0.0271134900	       -3.1424453200	        5.7252431600	        1.0698504800	      -12.2023225400	        0.0000000000	        0.0000000000	        8.2945253100	        0.0000000000	        0.0000000000	       10.4413254300	       -5.0956528400	       -7.2507330700	      -53.2205013600	        0.0000000000	        0.0000000000	        0.3457672400	        0.0000000000	        0.0000000000	      -22.8315653800	       -1.2282287300	        4.7925359700	       20.8320052100	      -19.0134471200	       32.6306353700	       23.7378904900	       86.5166270600	        0.0000000000	        0.0000000000	        0.3308477500	       -9.7623525100	       46.1276849000	        0.2752903300	       85.9436692700	        0.0000000000	        0.0000000000	
        3.3300000000	        8.2899426200	       -1.1135391100	       -0.9825749800	        0.0700207900	        0.9171426600	        0.0277509300	       -3.6818088100	        5.4914739300	        1.0610759600	      -11.8203152700	        0.0000000000	        0.0000000000	        8.5230497700	        0.0000000000	        0.0000000000	       11.3679987400	       -4.9015086100	       -7.7711036700	      -51.6265356900	        0.0000000000	        0.0000000000	        0.8042399300	        0.0000000000	        0.0000000000	      -22.7303033200	       -1.5889121000	        5.1701478800	       21.5902566400	      -19.3761750400	       32.2629015900	       24.2671107800	       86.5166270600	        0.0000000000	        0.0000000000	       -0.1952093800	       -9.8292653400	       45.6256037300	        0.4009325500	       85.9436692700	        0.0000000000	        0.0000000000	
        3.3400000000	        8.1671123100	       -0.9223195500	       -1.2011778600	        0.0690835300	        0.9173258200	        0.0282925300	       -4.2769603100	        5.2546013900	        1.0381530400	      -11.3986235300	        0.0000000000	        0.0000000000	        8.7444296600	        0.0000000000	        0.0000000000	       12.1677378600	       -4.6826134700	       -8.2725672400	      -49.7635534100	        0.0000000000	        0.0000000000	        1.1643771100	        0.0000000000	        0.0000000000	      -22.6547015500	       -1.9299435000	        5.5186319100	       22.3127831300	      -19.7301586900	       31.9139150300	       24.7846012900	       86.5166270600	        0.0000000000	        0.0000000000	       -0.6942692600	       -9.9002670400	       45.1271715900	        0.5479203600	       85.9436692700	        0.0000000000	        0.0000000000	
        3.3500000000	        8.0777967600	       -0.7419171100	       -1.4000897100	        0.0682013300	        0.9174706000	        0.0287525800	       -4.9341986800	        5.0255687700	        1.0256096400	      -10.9356207900	        0.0000000000	        0.0000000000	        8.9631852700	        0.0000000000	        0.0000000000	       12.8374701100	       -4.4488302600	       -8.7598938100	      -47.6511954500	        0.0000000000	        0.0000000000	        1.4278854000	        0.0000000000	        0.0000000000	      -22.6072333200	       -2.2437828300	        5.8490535600	       22.9874075000	      -20.0770637600	       31.5543961000	       25.3069565900	       86.5166270600	        0.0000000000	        0.0000000000	       -1.1652860500	       -9.9736576600	       44.6226402600	        0.7175370700	       85.9436692700	        0.0000000000	        0.0000000000	
        3.3600000000	        8.0161925100	       -0.5786337900	       -1.5890883600	        0.0674085100	        0.9175461200	        0.0291442800	       -5.6494425700	        4.8113588300	        1.0408757300	      -10.4335201700	        0.0000000000	        0.0000000000	        9.1838631500	        0.0000000000	        0.0000000000	       13.3817390400	       -4.2071442500	       -9.2318064400	      -45.3138767100	        0.0000000000	        0.0000000000	        1.5985898700	        0.0000000000	        0.0000000000	      -22.5825380300	       -2.5263689200	        6.1729989000	       23.6058959000	      -20.4182794500	       31.1676201500	       25.8400431300	       86.5166270600	        0.0000000000	        0.0000000000	       -1.6056618500	      -10.0487967000	       44.0969708200	        0.9121071400	       85.9436692700	        0.0000000000	        0.0000000000	
        3.3700000000	        7.9736103800	       -0.4357738500	       -1.7777953800	        0.0667305800	        0.9175058800	        0.0294743300	       -6.4086048800	        4.6142790000	        1.0930901200	       -9.9004117400	        0.0000000000	        0.0000000000	        9.4104532700	        0.0000000000	        0.0000000000	       13.8129981200	       -3.9599434000	       -9.6777692800	      -42.7754509800	        0.0000000000	        0.0000000000	        1.6795230100	        0.0000000000	        0.0000000000	      -22.5714710600	       -2.7768434600	        6.4996666200	       24.1670995400	      -20.7543947100	       30.7512934900	       26.3794633400	       86.5166270600	        0.0000000000	        0.0000000000	       -2.0108663700	      -10.1253508400	       43.5349872100	        1.1338759400	       85.9436692700	        0.0000000000	        0.0000000000	
        3.3800000000	        7.9400004900	       -0.3140714700	       -1.9715867500	        0.0661353000	        0.9173323500	        0.0297433300	       -7.1915635500	        4.4330454700	        1.1835371700	       -9.3501944600	        0.0000000000	        0.0000000000	        9.6458705300	        0.0000000000	        0.0000000000	       14.1479615100	       -3.7042078500	      -10.0765278800	      -40.0542944200	        0.0000000000	        0.0000000000	        1.6700260200	        0.0000000000	        0.0000000000	      -22.5659262300	       -2.9959682100	        6.8324501400	       24.6769884700	      -21.0850546400	       30.3159337600	       26.9134668800	       86.5166270600	        0.0000000000	        0.0000000000	       -2.3753808200	      -10.2022742000	       42.9264514200	        1.3835943000	       85.9436692700	        0.0000000000	        0.0000000000	
        3.3900000000	        7.9059804900	       -0.2121504800	       -2.1684177100	        0.0655627400	        0.9170434400	        0.0299403700	       -7.9779948100	        4.2652631600	        1.3070985500	       -8.7989496700	        0.0000000000	        0.0000000000	        9.8916677400	        0.0000000000	        0.0000000000	       14.4013015900	       -3.4322105600	      -10.3964195500	      -37.1618733900	        0.0000000000	        0.0000000000	        1.5645204400	        0.0000000000	        0.0000000000	      -22.5618631800	       -3.1840674200	        7.1669363400	       25.1457021600	      -21.4090870300	       29.8805909200	       27.4270319100	       86.5166270600	        0.0000000000	        0.0000000000	       -2.6949340500	      -10.2768612600	       42.2697914900	        1.6591908100	       85.9436692700	        0.0000000000	        0.0000000000	
